<svg version="1.1" xmlns="http://www.w3.org/2000/svg" x="0" y="0" viewBox="0 0 128 128" style="enable-background:new 0 0 128 128" xml:space="preserve"><style>.st1{fill:#90b5fd}</style><path d="m44 31 41.6 24c7.9-5.6 9.7-16.6 4.1-24.5-1.5-2-3.3-3.7-5.5-5L44 2.4c-8.4-4.8-19.1-2-24 6.4-1.5 2.7-2.4 5.7-2.3 8.8v28.7c0-9.7 7.9-17.5 17.5-17.5 3.1-.1 6.1.7 8.8 2.2z" style="fill:#5dc9fd"/><path class="st1" d="M99.2 62.9 85.6 55c-.5.3-.9.6-1.4.9L60.8 69.4l13.5 7.9c8.4 4.8 11.3 15.6 6.4 24-1.5 2.7-3.8 4.9-6.4 6.4L44 125.2l55.2-31.9c8.4-4.8 11.3-15.6 6.4-24-1.5-2.6-3.7-4.9-6.4-6.4zM17.7 64v10.9c0-1.9.3-3.7.9-5.5-.6-1.8-.9-3.6-.9-5.4z"/><path d="m44 59.7 16.9 9.7L84.2 56c.5-.3.9-.6 1.4-.9L44 31c-8.4-4.8-19.1-1.9-23.9 6.5-1.5 2.7-2.3 5.7-2.3 8.7V64c0 1.9.3 3.7.9 5.5 3-9.2 12.9-14.2 22.1-11.2 1 .3 2.1.8 3.2 1.4z" style="fill:#348ffb"/><path d="m74.4 77.2-13.5-7.8L44 79.1c-8.4 4.8-19.1 2-24-6.4-.6-1-1.1-2.2-1.5-3.3-.6 1.8-.9 3.6-.9 5.5V110c0 9.7 7.9 17.5 17.5 17.5 3.1 0 6.1-.8 8.8-2.3l30.4-17.5c8.4-4.8 11.3-15.6 6.5-23.9-1.5-2.8-3.8-5-6.4-6.6z" style="fill:#5180fb"/><path d="M18.5 69.4c3 9.2 12.9 14.2 22.1 11.2 1.1-.4 2.3-.9 3.3-1.5l16.9-9.7L44 59.7c-8.4-4.8-19.1-2-24 6.4-.6 1.1-1.1 2.2-1.5 3.3z" style="fill:#1d65f9"/></svg>